<!DOCTYPE svg PUBLIC "-//W3C//DTD SVG 1.1//EN" "http://www.w3.org/Graphics/SVG/1.1/DTD/svg11.dtd">
<!-- Uploaded to: SVG Repo, www.svgrepo.com, Transformed by: SVG Repo Mixer Tools -->
<svg height="800px" width="800px" version="1.1" id="Layer_1" xmlns="http://www.w3.org/2000/svg" xmlns:xlink="http://www.w3.org/1999/xlink" viewBox="-47.12 -47.12 565.44 565.44" xml:space="preserve" fill="#000000" transform="rotate(0)matrix(-1, 0, 0, 1, 0, 0)">
<g id="SVGRepo_bgCarrier" stroke-width="0"/>
<g id="SVGRepo_tracerCarrier" stroke-linecap="round" stroke-linejoin="round"/>
<g id="SVGRepo_iconCarrier"> <path style="fill:#51D687;" d="M143.2,130.8c10.4,0,18.4,8.8,18.4,16.8l0,0c0-40-35.2-80-80-80S0,104.4,0,149.2 c0,10.4,8,19.2,19.2,19.2c10.4,0,19.2-8.8,19.2-19.2c0-23.2,19.2-42.4,42.4-42.4s42.4,19.2,42.4,42.4c0,0.8,0.8,0,0.8,0.8 C123.2,139.6,132.8,130.8,143.2,130.8z"/> <path style="fill:#2CAF61;" d="M265.6,131.6c-10.4,0-19.2,8.8-19.2,19.2c0,23.2-19.2,42.4-42.4,42.4s-42.4-19.2-42.4-42.4 c0-0.8,0-0.8,0-0.8c0,10.4-8,19.2-19.2,19.2c-10.4,0-19.2-8-19.2-18.4l0,0c0,44.8,36,80.8,80.8,80.8s80.8-36,80.8-80.8 C284.8,140.4,276,131.6,265.6,131.6z"/> <path style="fill:#51D687;" d="M328,131.6c10.4,0,19.2,8,19.2,18.4l0,0c0-44.8-36-80.8-80.8-80.8s-80.8,36-80.8,80.8 c0,10.4,8.8,19.2,19.2,19.2S224,160.4,224,150c0-23.2,19.2-42.4,42.4-42.4s42.4,19.2,42.4,42.4c0,0.8,0,0.8,0,0.8 C309.6,140.4,317.6,131.6,328,131.6z"/> <path style="fill:#2CAF61;" d="M452,131.6c-10.4,0-19.2,8.8-19.2,19.2c0,23.2-19.2,42.4-42.4,42.4S348,174,348,150.8 c0-0.8,0-0.8,0-0.8c0,10.4-8.8,19.2-19.2,19.2c-10.4,0-19.2-5.6-19.2-21.6l0,0c0,48,34.4,80.8,79.2,80.8s81.6-34.4,81.6-79.2 C470.4,138.8,462.4,131.6,452,131.6z"/> <path style="fill:#51D687;" d="M143.2,302c10.4,0,18.4,8,18.4,18.4l0,0c0-44.8-35.2-80.8-80-80.8S0,275.6,0,320.4 c0,10.4,8,19.2,19.2,19.2c10.4,0,19.2-8.8,19.2-19.2c0-23.2,19.2-42.4,42.4-42.4s42.4,19.2,42.4,42.4c0,0.8,0.8,0.8,0.8,0.8 C123.2,310.8,132.8,302,143.2,302z"/> <path style="fill:#2CAF61;" d="M265.6,302c-10.4,0-19.2,8.8-19.2,19.2c0,23.2-19.2,42.4-42.4,42.4s-42.4-19.2-42.4-42.4 c0-0.8,0-0.8,0-0.8c0,10.4-8,19.2-19.2,19.2c-10.4,0-19.2-8-19.2-17.6l0,0c0,44.8,36,80.8,80.8,80.8s80.8-36,80.8-80.8 C284.8,310.8,276,302,265.6,302z"/> <path style="fill:#51D687;" d="M328,302c10.4,0,19.2,8,19.2,18.4l0,0c0-44.8-36-80.8-80.8-80.8s-80.8,36-80.8,80.8 c0,10.4,8.8,19.2,19.2,19.2s19.2-8.8,19.2-19.2c0-23.2,19.2-42.4,42.4-42.4s42.4,19.2,42.4,42.4c0,0.8,0,0.8,0,0.8 C309.6,310.8,317.6,302,328,302z"/> <path style="fill:#2CAF61;" d="M452,302c-10.4,0-19.2,8.8-19.2,19.2c0,23.2-19.2,42.4-42.4,42.4S348,344.4,348,321.2 c0-0.8,0-0.8,0-0.8c0,10.4-9.6,20-20,20s-18.4-8.8-18.4-16.8l0,0c0,40,35.2,80,80,80s81.6-36.8,81.6-81.6 C470.4,311.6,462.4,302,452,302z"/> </g>
</svg>